{
  "source": "C:\\Users\\Peter\\Desktop\\stuff\\MIUN\\quantitative_research\\video_compression\\videos\\UVG\\ShakeNDry_1920x1080_120fps_420_8bit_YUV.y4m",
  "output": "C:\\Users\\Peter\\Desktop\\stuff\\MIUN\\quantitative_research\\video_compression\\compressed_videos\\UVG\\vp9\\1.5\\ShakeNDry_1920x1080_120fps_420_8bit_YUV_vp9.webm",
  "codec": "vp9",
  "ok": "[yuv4mpegpipe @ 000001c1f89453c0] Stream #0: not enough frames to estimate rate; consider increasing probesize\nInput #0, yuv4mpegpipe, from 'C:\\Users\\Peter\\Desktop\\stuff\\MIUN\\quantitative_research\\video_compression\\videos\\UVG\\ShakeNDry_1920x1080_120fps_420_8bit_YUV.y4m':\n  Duration: 00:00:02.50, start: 0.000000, bitrate: 2985989 kb/s\n  Stream #0:0: Video: rawvideo (I420 / 0x30323449), yuv420p(progressive), 1920x1080, 120 fps, 120 tbr, 120 tbn\n[out#0/webm @ 000001c1f8949040] Codec AVOption b:a (set bitrate (in bits/s)) has not been used for any stream. The most likely reason is either wrong type (e.g. a video option with no video streams) or that it is a private option of some decoder which was not actually used for any stream.\nStream mapping:\n  Stream #0:0 -> #0:0 (rawvideo (native) -> vp9 (libvpx-vp9))\nPress [q] to stop, [?] for help\n[libvpx-vp9 @ 000001c1f894c100] v1.15.2-100-g40561f514\nOutput #0, webm, to 'C:\\Users\\Peter\\Desktop\\stuff\\MIUN\\quantitative_research\\video_compression\\compressed_videos\\UVG\\vp9\\1.5\\ShakeNDry_1920x1080_120fps_420_8bit_YUV_vp9.webm':\n  Metadata:\n    encoder         : Lavf62.3.100\n  Stream #0:0: Video: vp9, yuv420p(tv, progressive), 1920x1080, q=2-31, 1500 kb/s, 120 fps, 1k tbn\n    Metadata:\n      encoder         : Lavc62.11.100 libvpx-vp9\n    Side data:\n      cpb: bitrate max/min/avg: 0/0/0 buffer size: 1500000 vbv_delay: N/A\nframe=    3 fps=0.0 q=60.0 size=       0KiB time=00:00:00.02 bitrate= 153.9kbits/s speed=0.048x elapsed=0:00:00.52    \nframe=   11 fps= 11 q=60.0 size=       0KiB time=00:00:00.09 bitrate=  42.0kbits/s speed=0.0882x elapsed=0:00:01.03    \nframe=   18 fps= 12 q=60.0 size=       0KiB time=00:00:00.15 bitrate=  25.7kbits/s speed=0.0968x elapsed=0:00:01.54    \nframe=   25 fps= 12 q=60.0 size=       0KiB time=00:00:00.20 bitrate=  18.5kbits/s speed=0.101x elapsed=0:00:02.06    \nframe=   32 fps= 12 q=60.0 size=       0KiB time=00:00:00.26 bitrate=  14.4kbits/s speed=0.103x elapsed=0:00:02.58    \nframe=   39 fps= 13 q=60.0 size=       0KiB time=00:00:00.32 bitrate=  11.8kbits/s speed=0.104x elapsed=0:00:03.11    \nframe=   45 fps= 12 q=60.0 size=       0KiB time=00:00:00.37 bitrate=  10.3kbits/s speed=0.103x elapsed=0:00:03.64    \nframe=   53 fps= 13 q=61.0 size=       0KiB time=00:00:00.44 bitrate=   8.7kbits/s speed=0.106x elapsed=0:00:04.16    \nframe=   60 fps= 13 q=60.0 size=       0KiB time=00:00:00.50 bitrate=   7.7kbits/s speed=0.107x elapsed=0:00:04.69    \nframe=   67 fps= 13 q=60.0 size=       0KiB time=00:00:00.55 bitrate=   6.9kbits/s speed=0.107x elapsed=0:00:05.20    \nframe=   75 fps= 13 q=60.0 size=       0KiB time=00:00:00.62 bitrate=   6.2kbits/s speed=0.109x elapsed=0:00:05.71    \nframe=   82 fps= 13 q=60.0 size=       0KiB time=00:00:00.68 bitrate=   5.6kbits/s speed=0.11x elapsed=0:00:06.23    \nframe=   90 fps= 13 q=59.0 size=       0KiB time=00:00:00.75 bitrate=   5.1kbits/s speed=0.111x elapsed=0:00:06.75    \nframe=   96 fps= 13 q=59.0 size=       0KiB time=00:00:00.80 bitrate=   4.8kbits/s speed=0.11x elapsed=0:00:07.28    \nframe=  105 fps= 13 q=58.0 size=       0KiB time=00:00:00.87 bitrate=   4.4kbits/s speed=0.112x elapsed=0:00:07.80    \nframe=  112 fps= 13 q=58.0 size=       0KiB time=00:00:00.93 bitrate=   4.1kbits/s speed=0.112x elapsed=0:00:08.33    \nframe=  119 fps= 13 q=58.0 size=       0KiB time=00:00:00.99 bitrate=   3.9kbits/s speed=0.112x elapsed=0:00:08.84    \nframe=  128 fps= 14 q=58.0 size=       0KiB time=00:00:01.06 bitrate=   3.6kbits/s speed=0.114x elapsed=0:00:09.36    \nframe=  136 fps= 14 q=57.0 size=     189KiB time=00:00:01.13 bitrate=1368.8kbits/s speed=0.115x elapsed=0:00:09.88    \nframe=  143 fps= 14 q=55.0 size=     189KiB time=00:00:01.19 bitrate=1301.8kbits/s speed=0.114x elapsed=0:00:10.41    \nframe=  153 fps= 14 q=54.0 size=     189KiB time=00:00:01.27 bitrate=1216.7kbits/s speed=0.117x elapsed=0:00:10.92    \nframe=  160 fps= 14 q=54.0 size=     189KiB time=00:00:01.33 bitrate=1163.5kbits/s speed=0.116x elapsed=0:00:11.44    \nframe=  168 fps= 14 q=54.0 size=     189KiB time=00:00:01.40 bitrate=1108.1kbits/s speed=0.117x elapsed=0:00:11.97    \nframe=  175 fps= 14 q=55.0 size=     189KiB time=00:00:01.45 bitrate=1063.7kbits/s speed=0.117x elapsed=0:00:12.48    \nframe=  184 fps= 14 q=57.0 size=     189KiB time=00:00:01.53 bitrate=1011.7kbits/s speed=0.118x elapsed=0:00:12.99    \nframe=  191 fps= 14 q=56.0 size=     189KiB time=00:00:01.59 bitrate= 974.6kbits/s speed=0.118x elapsed=0:00:13.51    \nframe=  200 fps= 14 q=57.0 size=     189KiB time=00:00:01.66 bitrate= 930.8kbits/s speed=0.119x elapsed=0:00:14.04    \nframe=  207 fps= 14 q=56.0 size=     189KiB time=00:00:01.72 bitrate= 899.3kbits/s speed=0.118x elapsed=0:00:14.56    \nframe=  217 fps= 14 q=57.0 size=     189KiB time=00:00:01.80 bitrate= 861.8kbits/s speed=0.119x elapsed=0:00:15.09    \nframe=  224 fps= 14 q=56.0 size=     189KiB time=00:00:01.86 bitrate= 831.0kbits/s speed=0.12x elapsed=0:00:15.60    \nframe=  233 fps= 14 q=55.0 size=     189KiB time=00:00:01.94 bitrate= 798.9kbits/s speed=0.12x elapsed=0:00:16.13    \nframe=  241 fps= 14 q=55.0 size=     189KiB time=00:00:02.00 bitrate= 772.4kbits/s speed=0.12x elapsed=0:00:16.66    \nframe=  246 fps= 14 q=54.0 size=     189KiB time=00:00:02.05 bitrate= 756.7kbits/s speed=0.119x elapsed=0:00:17.18    \nframe=  253 fps= 14 q=55.0 size=     189KiB time=00:00:02.10 bitrate= 735.8kbits/s speed=0.119x elapsed=0:00:17.71    \nframe=  256 fps= 14 q=56.0 size=     189KiB time=00:00:02.13 bitrate= 727.2kbits/s speed=0.117x elapsed=0:00:18.24    \nframe=  264 fps= 14 q=54.0 size=     256KiB time=00:00:02.20 bitrate= 953.3kbits/s speed=0.117x elapsed=0:00:18.75    \nframe=  271 fps= 14 q=52.0 size=     256KiB time=00:00:02.25 bitrate= 928.6kbits/s speed=0.117x elapsed=0:00:19.28    \nframe=  276 fps= 14 q=50.0 size=     256KiB time=00:00:02.30 bitrate= 911.8kbits/s speed=0.116x elapsed=0:00:19.83    \nframe=  276 fps= 14 q=50.0 size=     256KiB time=00:00:02.30 bitrate= 911.8kbits/s speed=0.113x elapsed=0:00:20.37    \nframe=  276 fps= 13 q=50.0 size=     256KiB time=00:00:02.30 bitrate= 911.8kbits/s speed=0.11x elapsed=0:00:20.90    \nframe=  276 fps= 13 q=50.0 size=     256KiB time=00:00:02.30 bitrate= 911.8kbits/s speed=0.107x elapsed=0:00:21.44    \nframe=  276 fps= 13 q=50.0 size=     256KiB time=00:00:02.30 bitrate= 911.8kbits/s speed=0.105x elapsed=0:00:21.98    \n[out#0/webm @ 000001c1f8949040] video:484KiB audio:0KiB subtitle:0KiB other streams:0KiB global headers:0KiB muxing overhead: 0.539341%\nframe=  300 fps= 14 q=34.0 Lsize=     487KiB time=00:00:02.50 bitrate=1595.7kbits/s speed=0.113x elapsed=0:00:22.21    \n",
  "seconds": 22.330867052078247,
  "probe_out": {}
}